<svg width="50" height="50" viewBox="0 0 50 50" fill="none" xmlns="http://www.w3.org/2000/svg">
<path d="M6.27032 23.3749V32.7291C6.27032 42.0833 10.0203 45.8333 19.3745 45.8333H30.6037C39.9578 45.8333 43.7078 42.0833 43.7078 32.7291V23.3749" stroke="#171717" stroke-width="3.125" stroke-linecap="round" stroke-linejoin="round"/>
<path d="M25.001 25C28.8135 25 31.626 21.8959 31.251 18.0834L29.876 4.16669H20.1468L18.751 18.0834C18.376 21.8959 21.1885 25 25.001 25Z" stroke="#171717" stroke-width="3.125" stroke-linecap="round" stroke-linejoin="round"/>
<path d="M38.1474 25C42.3558 25 45.4391 21.5834 45.0224 17.3959L44.4391 11.6667C43.6891 6.25002 41.6058 4.16669 36.1474 4.16669H29.7933L31.2516 18.7709C31.6058 22.2084 34.7099 25 38.1474 25Z" fill="#BFA6FF" stroke="#171717" stroke-width="3.125" stroke-linecap="round" stroke-linejoin="round"/>
<path d="M11.7508 25C15.1883 25 18.2925 22.2084 18.6258 18.7709L19.0841 14.1667L20.0841 4.16669H13.73C8.27163 4.16669 6.18829 6.25002 5.43829 11.6667L4.87579 17.3959C4.45913 21.5834 7.54246 25 11.7508 25Z" fill="#BFA6FF" stroke="#171717" stroke-width="3.125" stroke-linecap="round" stroke-linejoin="round"/>
<path d="M25 35.4167C21.5209 35.4167 19.7917 37.1459 19.7917 40.625V45.8334H30.2084V40.625C30.2084 37.1459 28.4792 35.4167 25 35.4167Z" fill="#BFA6FF" stroke="#171717" stroke-width="3.125" stroke-linecap="round" stroke-linejoin="round"/>
</svg>
